# xmcd CD database file
#
# Track frame offsets:
#	150
#	12836
#	27260
#	41492
#	55091
#	70811
#	82276
#	95149
#	108376
#	122397
#	134356
#	152128
#
# Disc length: 2229 seconds
#
# Revision: 0
# Processed by: cddbd v1.5.1PL2 Copyright (c) Steve Scherf et al.
# Submitted via: CDex 1.50
#
DISCID=9c08b30c
DTITLE=Dale Juner - Livin' While I Learn
DYEAR=2005
DGENRE=Country
TTITLE0=Livin' While I Learn
TTITLE1=That's How I Remember 72
TTITLE2=Only Burning Me
TTITLE3=Soul Revival
TTITLE4=Sweet Summer Rain
TTITLE5=Put My Arms Around A Memory
TTITLE6=Tight Connection
TTITLE7=New Holland Blue
TTITLE8=Pickin' At The Bones Of Country
TTITLE9=Tahiti Tonight
TTITLE10=No Shame
TTITLE11=Tender Mercies
EXTD=YEAR: 2005
EXTT0=
EXTT1=
EXTT2=
EXTT3=
EXTT4=
EXTT5=
EXTT6=
EXTT7=
EXTT8=
EXTT9=
EXTT10=
EXTT11=
PLAYORDER=
